PathFileType	4	(X/Y/Z)	imu.trc
DataRate	CameraRate	NumFrames	NumMarkers	Units	OrigDataRate	OrigDataStartFrame	OrigNumFrames
60	60	195	2	mm	60	620	1033
Frame#	Time	thigh calf
X1	Y1	Z1	X2	Y2	Z2

620	6.19005	2.07345	5.03718	0.738636	2.18598	4.95219	0.859223	
621	6.20005	2.07454	5.042	0.7294	2.20285	4.9613	0.901009	
622	6.21005	2.08425	5.04948	0.729978	2.22006	4.97048	0.940702	
623	6.22005	2.10414	5.05815	0.741675	2.23959	4.97964	0.97953	
624	6.23005	2.12817	5.06637	0.757717	2.26072	4.9896	1.01553	
625	6.24005	2.15133	5.07327	0.77253	2.28133	5.00104	1.04716	
626	6.25005	2.17341	5.07913	0.785539	2.31727	5.02493	1.0912	
627	6.26005	2.1963	5.08444	0.798603	2.31727	5.02493	1.0912	
628	6.27005	2.22125	5.09021	0.813157	2.35122	5.04398	1.11454	
629	6.28005	2.24761	5.09759	0.829216	2.36529	5.0508	1.11756	
630	6.29005	2.27497	5.10681	0.847078	2.38191	5.06139	1.11141	
631	6.30005	2.30234	5.11797	0.866197	2.38427	5.06803	1.10704	
632	6.31005	2.32967	5.13106	0.885536	2.38834	5.07734	1.1079	
633	6.32005	2.35087	5.14235	0.899569	2.3946	5.0853	1.11257	
634	6.33005	2.37131	5.15388	0.911763	2.40044	5.09002	1.1156	
635	6.34005	2.38973	5.16465	0.921901	2.40171	5.09058	1.11261	
636	6.35005	2.40735	5.17544	0.931474	2.39689	5.08598	1.10161	
637	6.36005	2.42466	5.18654	0.940882	2.36628	5.05819	1.05401	
638	6.37005	2.44021	5.19736	0.949201	2.34442	5.03891	1.02173	
639	6.38005	2.45394	5.20738	0.956638	2.32251	5.02293	0.989135	
640	6.39005	2.4662	5.21666	0.963761	2.30183	5.01245	0.957848	
641	6.40005	2.47698	5.22512	0.969926	2.2855	5.00826	0.930777	
642	6.41005	2.48672	5.23293	0.975215	2.27857	5.0154	0.902215	
643	6.42005	2.49137	5.23675	0.977764	2.28417	5.02148	0.897337	
644	6.43005	2.50552	5.24908	0.986288	2.29403	5.02779	0.896921	
645	6.44005	2.51596	5.25868	0.993503	2.30369	5.0335	0.897248	
646	6.45005	2.52763	5.26985	1.00218	2.31157	5.03825	0.896741	
647	6.46005	2.54125	5.28348	1.0127	2.3204	5.04506	0.890819	
648	6.47005	2.55374	5.29692	1.02225	2.32067	5.04729	0.884111	
649	6.48005	2.5666	5.31184	1.03162	2.32041	5.04955	0.876891	
650	6.49005	2.57829	5.32647	1.03913	2.32216	5.05245	0.871562	
651	6.50005	2.58919	5.34022	1.04507	2.32653	5.05634	0.868575	
652	6.51005	2.59986	5.35369	1.05048	2.34334	5.0682	0.869779	
653	6.52005	2.60533	5.36056	1.05324	2.35477	5.07568	0.873157	
654	6.53005	2.61671	5.37479	1.05929	2.36692	5.08339	0.87728	
655	6.54005	2.63438	5.39722	1.06946	2.37811	5.09075	0.880489	
656	6.55006	2.64033	5.40477	1.07305	2.38713	5.09727	0.881547	
657	6.56006	2.65218	5.41975	1.08035	2.40013	5.10709	0.878127	
658	6.57006	2.66494	5.43513	1.08802	2.40531	5.11021	0.874925	
659	6.58006	2.67676	5.4487	1.09468	2.41043	5.11293	0.871366	
660	6.59006	2.6892	5.46242	1.10091	2.41583	5.11582	0.86786	
661	6.60006	2.70142	5.47554	1.10616	2.42169	5.1192	0.864671	
662	6.61006	2.71334	5.48855	1.11101	2.42869	5.12324	0.862319	
663	6.62006	2.72478	5.50185	1.11574	2.44508	5.13201	0.859699	
664	6.63006	2.73562	5.51573	1.12028	2.45303	5.13614	0.857971	
665	6.64006	2.74555	5.53015	1.12427	2.46063	5.14016	0.855883	
666	6.65006	2.75534	5.54498	1.12827	2.46841	5.14424	0.853902	
667	6.66006	2.76545	5.56012	1.13289	2.47665	5.14842	0.852267	
668	6.67006	2.77557	5.57547	1.13817	2.49329	5.15643	0.849205	
669	6.68006	2.785	5.59065	1.14364	2.50091	5.1599	0.847172	
670	6.69006	2.79317	5.6057	1.14925	2.50805	5.16304	0.844851	
671	6.70006	2.80021	5.62132	1.1552	2.51491	5.16586	0.842298	
672	6.71006	2.80657	5.63731	1.16166	2.52149	5.16851	0.839731	
673	6.72006	2.81186	5.65226	1.16782	2.53541	5.17419	0.835429	
674	6.73006	2.81663	5.66583	1.17358	2.54249	5.17715	0.833385	
675	6.74006	2.82092	5.67709	1.17912	2.54955	5.18006	0.831312	
676	6.75006	2.82481	5.68635	1.18482	2.55649	5.1828	0.829109	
677	6.76006	2.82898	5.69509	1.19301	2.56336	5.18533	0.826762	
678	6.77006	2.83381	5.70552	1.2044	2.57024	5.18767	0.824387	
679	6.78006	2.83894	5.71824	1.21852	2.58361	5.19256	0.819433	
680	6.79006	2.84375	5.73282	1.23466	2.59059	5.19564	0.817749	
681	6.80006	2.84763	5.74821	1.25252	2.59833	5.19946	0.817128	
682	6.81006	2.85045	5.76323	1.27269	2.60635	5.20382	0.816941	
683	6.82006	2.85181	5.77661	1.29553	2.61418	5.20831	0.816831	
684	6.83006	2.85133	5.78629	1.32068	2.62878	5.21715	0.816313	
685	6.84006	2.84901	5.79126	1.34785	2.63582	5.22167	0.815944	
686	6.85006	2.84527	5.79199	1.37675	2.64288	5.2264	0.815559	
687	6.86006	2.84099	5.78982	1.40703	2.65009	5.23149	0.815097	
688	6.87006	2.83681	5.78595	1.43832	2.65749	5.23686	0.814451	
689	6.88006	2.83276	5.78123	1.46936	2.66482	5.24225	0.813386	
690	6.89006	2.8291	5.77468	1.4989	2.67814	5.25237	0.808761	
691	6.90006	2.82615	5.76475	1.52617	2.68394	5.25694	0.804852	
692	6.91006	2.82424	5.75254	1.5513	2.68915	5.26114	0.800028	
693	6.92006	2.82368	5.73941	1.57455	2.69405	5.26516	0.794455	
694	6.93006	2.82338	5.72819	1.59594	2.69895	5.26925	0.788382	
695	6.94006	2.82154	5.72298	1.6152	2.71049	5.27846	0.776154	
696	6.95006	2.81786	5.72461	1.63234	2.71731	5.28414	0.770075	
697	6.96006	2.81287	5.72992	1.6477	2.72475	5.29071	0.764029	
698	6.97006	2.80795	5.73478	1.66175	2.73292	5.29817	0.758056	
699	6.98006	2.80454	5.73721	1.6756	2.74168	5.3059	0.751848	
700	6.99007	2.80279	5.73701	1.68957	2.76073	5.32128	0.739217	
701	7.00007	2.80272	5.73564	1.70411	2.77127	5.32936	0.733103	
702	7.01007	2.80377	5.73439	1.71937	2.78299	5.33843	0.727426	
703	7.02007	2.80453	5.73407	1.72826	2.79656	5.34834	0.722727	
704	7.03007	2.80695	5.73546	1.75069	2.8129	5.35937	0.719541	
705	7.04007	2.80852	5.73762	1.76597	2.85155	5.38601	0.714545	
706	7.05007	2.81027	5.73961	1.78059	2.86831	5.40043	0.710452	
707	7.06007	2.81279	5.74076	1.7945	2.88497	5.41715	0.703901	
708	7.07007	2.81579	5.74157	1.80732	2.89855	5.43453	0.693919	
709	7.08007	2.81893	5.74275	1.81893	2.90907	5.45175	0.681788	
710	7.09007	2.82181	5.74496	1.82938	2.92496	5.48178	0.657562	
711	7.10007	2.82423	5.74871	1.83867	2.93452	5.49525	0.651184	
712	7.11007	2.82613	5.75439	1.84683	2.94749	5.50843	0.648575	
713	7.12007	2.82687	5.75793	1.85051	2.96456	5.5215	0.648009	
714	7.13007	2.82866	5.77001	1.85985	2.98542	5.53496	0.649692	
715	7.14007	2.82977	5.77853	1.86458	3.00792	5.54889	0.651698	
716	7.15007	2.83109	5.78663	1.86811	3.04517	5.58015	0.653724	
717	7.16007	2.83188	5.79037	1.86941	3.05877	5.59953	0.6554	
718	7.17007	2.83369	5.79779	1.87132	3.06943	5.61985	0.658226	
719	7.18007	2.83584	5.80725	1.87157	3.07631	5.63733	0.661005	
720	7.19007	2.83668	5.81472	1.87025	3.08063	5.65146	0.665431	
721	7.20007	2.83688	5.82281	1.86771	3.08498	5.67393	0.680136	
722	7.21007	2.83681	5.82692	1.86599	3.08568	5.68365	0.690239	
723	7.22007	2.83614	5.83907	1.85914	3.085	5.69255	0.702398	
724	7.23007	2.83554	5.84667	1.85341	3.0836	5.70101	0.717192	
725	7.24007	2.83486	5.85356	1.84717	3.07928	5.71759	0.751002	
726	7.25007	2.83445	5.85677	1.84393	3.07612	5.72527	0.77057	
727	7.26007	2.83323	5.86319	1.83732	3.07217	5.73243	0.791646	
728	7.27007	2.83132	5.87041	1.8306	3.06791	5.73952	0.814858	
729	7.28007	2.82875	5.87926	1.82416	3.0634	5.74692	0.839848	
730	7.29007	2.82586	5.89033	1.81811	3.05854	5.7547	0.866466	
731	7.30007	2.82292	5.90307	1.81235	3.05318	5.7627	0.894186	
732	7.31007	2.82027	5.91609	1.8065	3.04038	5.779	0.953428	
733	7.32007	2.81779	5.92794	1.79964	3.03311	5.78618	0.985081	
734	7.33007	2.81573	5.93595	1.79344	3.02558	5.79226	1.01797	
735	7.34007	2.81362	5.94291	1.78688	3.01833	5.79717	1.05222	
736	7.35007	2.81151	5.94959	1.78085	3.01178	5.80119	1.08782	
737	7.36007	2.80969	5.95687	1.77597	3.00185	5.80915	1.16313	
738	7.37007	2.80885	5.96461	1.77225	2.9984	5.81401	1.20275	
739	7.38007	2.80966	5.97158	1.76798	2.99537	5.82002	1.24304	
740	7.39007	2.81223	5.97624	1.76309	2.99269	5.82741	1.28378	
741	7.40007	2.8162	5.9785	1.75785	2.99021	5.83661	1.32471	
742	7.41007	2.82053	5.97978	1.7517	2.98523	5.86296	1.40692	
743	7.42007	2.82413	5.98105	1.7437	2.98241	5.87869	1.44772	
744	7.43008	2.82673	5.98349	1.73221	2.97971	5.89504	1.4881	
745	7.44008	2.82849	5.98791	1.71627	2.97703	5.91069	1.52788	
746	7.45008	2.82903	5.99183	1.69737	2.97038	5.93562	1.60334	
747	7.46008	2.82792	5.99208	1.67939	2.96627	5.94435	1.63866	
748	7.47008	2.82473	5.99003	1.6644	2.96239	5.95041	1.67306	
749	7.48008	2.82093	5.98984	1.65491	2.95924	5.95534	1.70596	
750	7.49008	2.81777	5.99276	1.64778	2.95725	5.9614	1.73779	
751	7.50008	2.81735	5.9986	1.64391	2.95614	5.9697	1.76662	
752	7.51008	2.81989	6.00669	1.64263	2.95408	5.9935	1.8122	
753	7.52008	2.82438	6.01605	1.64195	2.95045	6.00725	1.82972	
754	7.53008	2.82967	6.02504	1.63996	2.94405	6.02136	1.84219	
755	7.54008	2.83456	6.03282	1.63571	2.93658	6.03566	1.84842	
756	7.55008	2.83813	6.04035	1.62936	2.9297	6.05034	1.85023	
757	7.56008	2.83997	6.04925	1.62203	2.92014	6.07786	1.8401	
758	7.57008	2.84035	6.06086	1.61546	2.91723	6.08555	1.83268	
759	7.58008	2.83983	6.07609	1.61078	2.91459	6.08851	1.82671	
760	7.59008	2.839	6.09472	1.60742	2.91318	6.08857	1.82613	
761	7.60008	2.83835	6.11518	1.60418	2.91357	6.08664	1.82468	
762	7.61008	2.83819	6.13559	1.60054	2.9158	6.08048	1.82003	
763	7.62008	2.83839	6.14529	1.59863	2.92693	6.05427	1.80526	
764	7.63008	2.83913	6.16384	1.59466	2.93376	6.03804	1.79536	
765	7.64008	2.83962	6.17224	1.59279	2.94028	6.0203	1.7842	
766	7.65008	2.84101	6.19315	1.58769	2.94942	5.99038	1.76074	
767	7.66008	2.84158	6.20825	1.58241	2.94909	5.98502	1.74906	
768	7.67008	2.84164	6.21247	1.58039	2.9474	5.98597	1.73779	
769	7.68008	2.84248	6.22981	1.57108	2.94516	5.9923	1.72711	
770	7.69008	2.84364	6.23969	1.56593	2.94239	6.00136	1.71723	
771	7.70008	2.84533	6.24979	1.56062	2.93861	6.01117	1.70776	
772	7.71008	2.84628	6.25472	1.55794	2.93084	6.02659	1.69074	
773	7.72008	2.84828	6.26404	1.55256	2.92812	6.03157	1.68303	
774	7.73008	2.85027	6.2726	1.54734	2.92638	6.03468	1.67553	
775	7.74008	2.85217	6.28078	1.54243	2.92535	6.03611	1.66806	
776	7.75008	2.85379	0.0059226	1.53793	2.92436	6.03669	1.66059	
777	7.76008	2.8551	0.0151359	1.53376	2.92265	6.03989	1.64508	
778	7.77008	2.85633	0.0253607	1.52985	2.92186	6.04462	1.63686	
779	7.78008	2.85756	0.0360476	1.5261	2.9209	6.05174	1.62828	
780	7.79008	2.85871	0.0467759	1.52227	2.91976	6.06026	1.61936	
781	7.80008	2.86019	0.0570965	1.51827	2.91868	6.06932	1.61027	
782	7.81008	2.86222	0.0667978	1.51392	2.91769	6.07791	1.60101	
783	7.82008	2.86465	0.0755585	1.50922	2.91669	6.09108	1.58207	
784	7.83008	2.86728	0.083384	1.50417	2.91668	6.09556	1.57248	
785	7.84008	2.86996	0.0907593	1.49883	2.91699	6.09878	1.56283	
786	7.85008	2.87262	0.0984178	1.49323	2.91747	6.10148	1.55322	
787	7.86009	2.87527	0.106645	1.48743	2.91815	6.10392	1.54376	
788	7.87009	2.87782	0.115539	1.48152	2.92012	6.10826	1.52539	
789	7.88009	2.88027	0.125291	1.47573	2.92127	6.11042	1.51649	
790	7.89009	2.88249	0.135175	1.47013	2.92239	6.11282	1.50758	
791	7.90009	2.88441	0.144279	1.46461	2.92346	6.11559	1.49852	
792	7.91009	2.88606	0.152425	1.45919	2.92459	6.1187	1.48933	
793	7.92009	2.88684	0.156242	1.45661	2.927	6.12487	1.4706	
794	7.93009	2.88846	0.163978	1.4521	2.9282	6.12765	1.46082	
795	7.94009	2.89019	0.172307	1.44822	2.92936	6.13036	1.45082	
796	7.95009	2.89218	0.181867	1.44542	2.93056	6.13307	1.44053	
797	7.96009	2.89439	0.192647	1.44382	2.93193	6.13573	1.43005	
798	7.97009	2.8966	0.204221	1.44401	2.93498	6.14078	1.40882	
799	7.98009	2.89966	0.220283	1.44566	2.93645	6.14335	1.3983	
800	7.99009	2.90125	0.229319	1.44759	2.93645	6.14335	1.3983	
801	8.00009	2.90252	0.237775	1.45083	2.93934	6.14855	1.37807	
802	8.01009	2.90375	0.246936	1.45578	2.94086	6.15116	1.36841	
803	8.02009	2.90476	0.257305	1.46222	2.94247	6.15378	1.35912	
804	8.03009	2.90515	0.268232	1.46985	2.94413	6.15629	1.34992	
805	8.04009	2.90491	0.278833	1.47916	2.94741	6.1608	1.33216	
806	8.05009	2.90443	0.287992	1.49068	2.94894	6.16287	1.32349	
807	8.06009	2.90405	0.294241	1.50431	2.95043	6.165	1.31492	
808	8.07009	2.90356	0.295953	1.52001	2.95197	6.16733	1.30641	
809	8.08009	2.90321	0.294824	1.52865	2.95361	6.16997	1.29795	
810	8.09009	2.90191	0.284028	1.55889	2.95753	6.17575	1.28074	
811	8.10009	2.90121	0.273054	1.5824	2.95948	6.17847	1.27251	
812	8.11009	2.90043	0.261295	1.60855	2.96157	6.1814	1.26376	
813	8.12009	2.89991	0.255497	1.62261	2.96373	6.18443	1.25473	
814	8.13009	2.89886	0.244048	1.65227	2.96604	6.18766	1.2454	
